<svg width="776" height="200" viewBox="0 0 776 200" fill="none" xmlns="http://www.w3.org/2000/svg">
<path d="M89.9938 200H89.9713C85.8366 199.999 81.7731 198.914 78.1871 196.851L11.818 158.636C4.52222 154.422 0.019989 146.645 0 138.22V61.7874C0.0137329 53.3588 4.51843 45.5764 11.818 41.3627L78.1871 3.14715C85.5029 -1.04905 94.4961 -1.04905 101.812 3.14715L168.181 41.3565C175.475 45.5714 179.978 53.35 180 61.7749V138.21C179.984 146.64 175.479 154.423 168.177 158.637L101.808 196.853C98.2195 198.913 94.1548 199.997 90.0163 199.997L89.9938 200Z" fill="#F8000F"/>
<path d="M78.4615 138.463C78.4615 132.09 83.6279 126.924 90 126.924C96.3721 126.924 101.538 132.09 101.538 138.463C101.538 144.834 96.3721 150.001 90 150.001C83.6279 150.001 78.4615 144.834 78.4615 138.463ZM116.923 100.001C116.923 93.6281 122.089 88.4628 128.462 88.4628C134.834 88.4628 140 93.6281 140 100.001C140 106.373 134.834 111.54 128.462 111.54C122.089 111.54 116.923 106.373 116.923 100.001ZM40 100.001C40 93.6281 45.1663 88.4628 51.5385 88.4628C57.9106 88.4628 63.0769 93.6281 63.0769 100.001C63.0769 106.373 57.9106 111.54 51.5385 111.54C45.1663 111.54 40 106.373 40 100.001ZM78.4615 61.5397C78.4615 55.1666 83.6279 50.0012 90 50.0012C96.3721 50.0012 101.538 55.1666 101.538 61.5397C101.538 67.9118 96.3721 73.0782 90 73.0782C83.6279 73.0782 78.4615 67.9118 78.4615 61.5397Z" fill="white"/>
<path d="M111.155 100C111.168 91.9454 116.732 84.9627 124.58 83.1483C120.807 75.4329 114.569 69.1954 106.854 65.4224C104.718 74.73 95.4411 80.5435 86.1343 78.4079C79.6748 76.9262 74.6305 71.882 73.1488 65.4224C65.4334 69.1964 59.1959 75.4339 55.4238 83.1483C64.7305 85.2829 70.545 94.5589 68.4103 103.866C66.9286 110.326 61.8844 115.371 55.4238 116.852C59.1959 124.569 65.4334 130.806 73.1498 134.578C75.2844 125.271 84.5593 119.457 93.8661 121.592C100.327 123.073 105.372 128.118 106.854 134.578C114.569 130.806 120.807 124.569 124.58 116.853C116.732 115.04 111.168 108.056 111.155 100Z" fill="white"/>
<path d="M258.08 130L243.56 104.7H235.2V130H217.6V53H248.4C255.733 53 261.967 55.5667 267.1 60.7C272.233 65.8333 274.8 72.0667 274.8 79.4C274.8 84.0933 273.48 88.4567 270.84 92.49C268.273 96.45 264.863 99.53 260.61 101.73L277 130H258.08ZM235.2 69.5V89.3H248.4C250.82 89.3 252.873 88.3467 254.56 86.44C256.32 84.5333 257.2 82.1867 257.2 79.4C257.2 76.6133 256.32 74.2667 254.56 72.36C252.873 70.4533 250.82 69.5 248.4 69.5H235.2ZM296.673 109.1C298.579 114.233 302.979 116.8 309.873 116.8C314.346 116.8 317.866 115.407 320.433 112.62L333.633 120.21C328.206 127.763 320.213 131.54 309.653 131.54C300.413 131.54 293.006 128.79 287.433 123.29C281.933 117.79 279.183 110.86 279.183 102.5C279.183 94.2133 281.896 87.32 287.323 81.82C292.823 76.2467 299.863 73.46 308.443 73.46C316.436 73.46 323.073 76.2467 328.353 81.82C333.706 87.32 336.383 94.2133 336.383 102.5C336.383 104.847 336.163 107.047 335.723 109.1H296.673ZM296.343 96.78H319.993C318.379 90.9867 314.493 88.09 308.333 88.09C301.953 88.09 297.956 90.9867 296.343 96.78ZM359.213 91.06C359.213 92.16 360.13 93.0767 361.963 93.81C363.87 94.47 366.143 95.1667 368.783 95.9C371.423 96.56 374.063 97.44 376.703 98.54C379.343 99.64 381.58 101.473 383.413 104.04C385.32 106.533 386.273 109.687 386.273 113.5C386.273 119.44 384.073 123.95 379.673 127.03C375.273 130.037 369.846 131.54 363.393 131.54C351.806 131.54 343.923 127.177 339.743 118.45L354.043 110.31C355.51 114.637 358.626 116.8 363.393 116.8C367.353 116.8 369.333 115.663 369.333 113.39C369.333 112.29 368.38 111.373 366.473 110.64C364.64 109.907 362.403 109.21 359.763 108.55C357.123 107.817 354.483 106.9 351.843 105.8C349.203 104.627 346.93 102.83 345.023 100.41C343.19 97.99 342.273 95.02 342.273 91.5C342.273 85.78 344.326 81.3433 348.433 78.19C352.613 75.0367 357.746 73.46 363.833 73.46C368.38 73.46 372.523 74.4867 376.263 76.54C380.003 78.52 383.01 81.4167 385.283 85.23L371.203 92.82C369.443 89.5933 366.986 87.98 363.833 87.98C360.753 87.98 359.213 89.0067 359.213 91.06ZM425.13 90.84H413.8V110.31C413.8 112.51 414.68 113.903 416.44 114.49C418.2 115.077 421.096 115.26 425.13 115.04V130C414.643 131.1 407.383 130.11 403.35 127.03C399.316 123.877 397.3 118.303 397.3 110.31V90.84H388.5V75H397.3V64.55L413.8 59.6V75H425.13V90.84ZM480.478 123.18C474.831 128.753 467.938 131.54 459.798 131.54C451.658 131.54 444.764 128.753 439.118 123.18C433.471 117.533 430.648 110.64 430.648 102.5C430.648 94.36 433.471 87.5033 439.118 81.93C444.764 76.2833 451.658 73.46 459.798 73.46C467.938 73.46 474.831 76.2833 480.478 81.93C486.124 87.5033 488.948 94.36 488.948 102.5C488.948 110.64 486.124 117.533 480.478 123.18ZM450.778 111.85C453.198 114.27 456.204 115.48 459.798 115.48C463.391 115.48 466.398 114.27 468.818 111.85C471.238 109.43 472.448 106.313 472.448 102.5C472.448 98.6867 471.238 95.57 468.818 93.15C466.398 90.73 463.391 89.52 459.798 89.52C456.204 89.52 453.198 90.73 450.778 93.15C448.358 95.57 447.148 98.6867 447.148 102.5C447.148 106.313 448.358 109.43 450.778 111.85Z" fill="white"/>
<path d="M574.07 90.07C580.377 94.1033 583.53 99.8967 583.53 107.45C583.53 114.123 581.147 119.55 576.38 123.73C571.614 127.91 565.71 130 558.67 130H526.33V53H556.47C563.364 53 569.12 55.0533 573.74 59.16C578.434 63.1933 580.78 68.4733 580.78 75C580.78 81.16 578.544 86.1833 574.07 90.07ZM556.47 69.5H543.93V83.14H556.47C558.45 83.14 560.064 82.5167 561.31 81.27C562.557 79.95 563.18 78.3 563.18 76.32C563.18 74.34 562.557 72.7267 561.31 71.48C560.064 70.16 558.45 69.5 556.47 69.5ZM558.67 113.5C560.87 113.5 562.63 112.84 563.95 111.52C565.27 110.127 565.93 108.33 565.93 106.13C565.93 103.93 565.27 102.17 563.95 100.85C562.63 99.4567 560.87 98.76 558.67 98.76H543.93V113.5H558.67ZM639.892 123.18C634.245 128.753 627.352 131.54 619.212 131.54C611.072 131.54 604.178 128.753 598.532 123.18C592.885 117.533 590.062 110.64 590.062 102.5C590.062 94.36 592.885 87.5033 598.532 81.93C604.178 76.2833 611.072 73.46 619.212 73.46C627.352 73.46 634.245 76.2833 639.892 81.93C645.538 87.5033 648.362 94.36 648.362 102.5C648.362 110.64 645.538 117.533 639.892 123.18ZM610.192 111.85C612.612 114.27 615.618 115.48 619.212 115.48C622.805 115.48 625.812 114.27 628.232 111.85C630.652 109.43 631.862 106.313 631.862 102.5C631.862 98.6867 630.652 95.57 628.232 93.15C625.812 90.73 622.805 89.52 619.212 89.52C615.618 89.52 612.612 90.73 610.192 93.15C607.772 95.57 606.562 98.6867 606.562 102.5C606.562 106.313 607.772 109.43 610.192 111.85ZM704.775 123.18C699.128 128.753 692.235 131.54 684.095 131.54C675.955 131.54 669.061 128.753 663.415 123.18C657.768 117.533 654.945 110.64 654.945 102.5C654.945 94.36 657.768 87.5033 663.415 81.93C669.061 76.2833 675.955 73.46 684.095 73.46C692.235 73.46 699.128 76.2833 704.775 81.93C710.421 87.5033 713.245 94.36 713.245 102.5C713.245 110.64 710.421 117.533 704.775 123.18ZM675.075 111.85C677.495 114.27 680.501 115.48 684.095 115.48C687.688 115.48 690.695 114.27 693.115 111.85C695.535 109.43 696.745 106.313 696.745 102.5C696.745 98.6867 695.535 95.57 693.115 93.15C690.695 90.73 687.688 89.52 684.095 89.52C680.501 89.52 677.495 90.73 675.075 93.15C672.655 95.57 671.445 98.6867 671.445 102.5C671.445 106.313 672.655 109.43 675.075 111.85ZM775.377 130H756.677L739.077 105.69V130H722.577V53H739.077V99.09L755.577 75H774.827L754.807 102.5L775.377 130Z" fill="#F8000F"/>
</svg>
